<svg xmlns="http://www.w3.org/2000/svg"  viewBox="0 0 53 53" width="132px" height="132px"><path d="M 37.320312 3.5019531 L 18.140625 3.5039062 C 16.78418 3.5039062 15.679688 4.6083985 15.679688 5.9648438 L 15.679688 25.595703 C 16.396954 25.119305 17.36462 24.853516 18.140625 24.853516 L 37.320312 24.853516 L 37.320312 3.5019531 z M 9.4003906 9.4882812 C 8.010437 9.4882812 6.8691406 10.627319 6.8691406 12.027344 L 6.8691406 12.316406 L 6.5703125 12.316406 C 4.3203125 12.316406 2.5 14.146729 2.5 16.386719 L 2.5 41.597656 C 2.5 43.847656 4.3203125 45.667969 6.5703125 45.667969 L 20.460938 45.667969 C 21.160889 45.667969 21.820923 46.116699 22.210938 46.886719 C 23.040894 48.496704 24.689758 49.498047 26.509766 49.498047 C 28.329773 49.498047 29.97052 48.496704 30.810547 46.886719 C 31.200561 46.116699 31.850525 45.667969 32.560547 45.667969 L 46.429688 45.667969 C 48.669678 45.667969 50.5 43.847656 50.5 41.597656 L 50.5 16.386719 C 50.5 14.146729 48.669678 12.316406 46.429688 12.316406 L 46.140625 12.316406 L 46.140625 12.027344 C 46.140625 10.627319 45.009399 9.4882813 43.609375 9.4882812 L 39.320312 9.4882812 L 39.320312 11.488281 L 43.609375 11.488281 C 43.899353 11.488281 44.140625 11.727356 44.140625 12.027344 C 44.126907 49.398304 44.131882 36.508526 44.130859 39.296875 L 30.380859 39.296875 C 29.300842 39.296875 28.319763 39.658081 27.509766 40.248047 L 27.509766 31.773438 L 36.755859 31.773438 C 36.174805 30.137695 36.174805 28.494629 36.755859 26.859375 L 18.136719 26.859375 C 16.782227 26.859375 15.679687 27.961426 15.679688 29.316406 C 15.679688 30.671387 16.782227 31.773438 18.136719 31.773438 L 25.509766 31.773438 L 25.509766 40.248047 C 24.699768 39.658081 23.710632 39.296875 22.640625 39.296875 L 8.8691406 39.296875 L 8.8691406 12.027344 C 8.8691406 11.717346 9.1004028 11.488281 9.4003906 11.488281 L 13.679688 11.488281 L 13.679688 9.4882812 L 9.4003906 9.4882812 z M 21.521484 10.082031 L 21.626953 10.082031 C 21.860352 10.082031 22.064453 10.148926 22.234375 10.283203 C 22.381836 10.399902 22.498047 10.552246 22.580078 10.734375 L 25.265625 17.072266 C 25.321289 17.206543 25.347656 17.322754 25.347656 17.429688 C 25.347656 17.660156 25.264648 17.864746 25.109375 18.025391 C 24.951172 18.189453 24.739258 18.277344 24.498047 18.277344 C 24.328125 18.277344 24.169922 18.230469 24.027344 18.138672 C 23.885742 18.045898 23.777344 17.921387 23.705078 17.765625 L 23.113281 16.341797 L 20.037109 16.341797 L 19.449219 17.751953 C 19.371094 17.922363 19.263672 18.04834 19.123047 18.138672 C 18.777344 18.359863 18.30957 18.305664 18.039062 18.025391 C 17.884766 17.865723 17.802734 17.660156 17.802734 17.429688 C 17.802734 17.322754 17.830078 17.206055 17.884766 17.074219 L 20.566406 10.740234 C 20.649414 10.552734 20.766602 10.401367 20.916016 10.283203 C 21.082031 10.151367 21.291992 10.082031 21.521484 10.082031 z M 29.552734 10.132812 L 34.117188 10.132812 C 34.418964 10.132812 34.676758 10.241211 34.863281 10.445312 C 35.040039 10.637207 35.134766 10.884766 35.134766 11.160156 C 35.134766 11.279297 35.109375 11.401855 35.060547 11.523438 C 35.010742 11.641113 34.949219 11.742676 34.875 11.828125 L 31.033203 16.580078 L 34.369141 16.580078 C 34.59375 16.580078 34.796875 16.663086 34.955078 16.820312 C 35.113281 16.979492 35.197266 17.183105 35.197266 17.408203 C 35.197266 17.637207 35.111328 17.839355 34.949219 17.994141 C 34.792969 18.144531 34.591797 18.224609 34.369141 18.224609 L 29.689453 18.224609 C 29.421875 18.224609 29.18166 18.124512 28.992188 17.935547 C 28.80373 17.74707 28.705078 17.507324 28.705078 17.240234 C 28.705078 16.998535 28.774414 16.788086 28.914062 16.615234 L 32.816406 11.798828 L 29.552734 11.798828 C 29.327148 11.798828 29.125 11.714355 28.966797 11.556641 C 28.80957 11.400391 28.726562 11.197266 28.726562 10.970703 C 28.726562 10.748047 28.806641 10.547363 28.960938 10.386719 C 29.121094 10.221191 29.325195 10.132812 29.552734 10.132812 z M 21.574219 12.654297 L 20.716797 14.71875 L 22.433594 14.71875 L 21.574219 12.654297 z M 26.498047 14.099609 L 27.429688 14.099609 C 27.649414 14.099609 27.84668 14.181152 28 14.335938 C 28.154297 14.490234 28.234375 14.686523 28.234375 14.904297 C 28.234375 15.125977 28.152344 15.323242 27.994141 15.474609 C 27.839844 15.62207 27.645508 15.701172 27.429688 15.701172 L 26.498047 15.701172 C 26.280273 15.701172 26.083008 15.621094 25.931641 15.470703 L 25.931641 15.46875 C 25.78125 15.318359 25.701172 15.122559 25.701172 14.904297 C 25.701172 14.689941 25.77832 14.495605 25.923828 14.341797 C 26.077148 14.182129 26.275391 14.099609 26.498047 14.099609 z"/></svg>